# xmcd
#
# Track frame offsets: 
#        150
#        17799
#        32228
#        51040
#        69874
#        83998
#        102498
#        121841
#        140832
#        157902
#
# Disc length: 2351 seconds
#
# Revision: 0
# Processed by: cddbd v1.5.1PL0 Copyright (c) Steve Scherf et al.
# Submitted via: ExactAudioCopy v0.95b3
#
DISCID=80092d0a
DTITLE=©PµØ°· - ©P¦Ó´_©l KEEP WAKIN 1987-2002 CD3
DYEAR=1900
DGENRE=Pop
TTITLE0=Just When I Needed You Most
TTITLE1=Songs Of Birds
TTITLE2=Sometimes When We Touch
TTITLE3=How Deep Is Your Love
TTITLE4=Goodbye Girl
TTITLE5=I Remember
TTITLE6=We're All Alone
TTITLE7=The Gift Of Love
TTITLE8=Separate Lives
TTITLE9=Wake Up
EXTD=
EXTT0=
EXTT1=
EXTT2=
EXTT3=
EXTT4=
EXTT5=
EXTT6=
EXTT7=
EXTT8=
EXTT9=
PLAYORDER=
